<svg xmlns="http://www.w3.org/2000/svg" width="760" height="620" viewBox="0 0 760 620">
<style>text{font-family:system-ui,-apple-system,BlinkMacSystemFont,"Segoe UI",sans-serif;fill:#171714}.axis{stroke:#171714;stroke-width:1.5}.grid{stroke:#cbc3b5;stroke-width:1;opacity:.55}.lab{font-size:15px}.tick{font-size:12px;fill:#716d64}.leg{font-size:12px}</style>
<line class="grid" x1="55.0" y1="35" x2="55.0" y2="265"/><text class="tick" x="55.0" y="283" text-anchor="middle">1.5</text><line class="grid" x1="133.8" y1="35" x2="133.8" y2="265"/><text class="tick" x="133.8" y="283" text-anchor="middle">3.4</text><line class="grid" x1="212.5" y1="35" x2="212.5" y2="265"/><text class="tick" x="212.5" y="283" text-anchor="middle">5.2</text><line class="grid" x1="291.2" y1="35" x2="291.2" y2="265"/><text class="tick" x="291.2" y="283" text-anchor="middle">7.1</text><line class="grid" x1="370.0" y1="35" x2="370.0" y2="265"/><text class="tick" x="370.0" y="283" text-anchor="middle">9.0</text><line class="grid" x1="55" y1="265.0" x2="370" y2="265.0"/><text class="tick" x="47" y="269.0" text-anchor="end">2.0</text><line class="grid" x1="55" y1="207.5" x2="370" y2="207.5"/><text class="tick" x="47" y="211.5" text-anchor="end">3.8</text><line class="grid" x1="55" y1="150.0" x2="370" y2="150.0"/><text class="tick" x="47" y="154.0" text-anchor="end">5.5</text><line class="grid" x1="55" y1="92.5" x2="370" y2="92.5"/><text class="tick" x="47" y="96.5" text-anchor="end">7.2</text><line class="grid" x1="55" y1="35.0" x2="370" y2="35.0"/><text class="tick" x="47" y="39.0" text-anchor="end">9.0</text><line class="axis" x1="55" y1="265" x2="370" y2="265"/><line class="axis" x1="55" y1="35" x2="55" y2="265"/><text class="lab" x="212.5" y="305" text-anchor="middle">competitor quality qX</text><text class="lab" x="12" y="150.0" text-anchor="middle" transform="rotate(-90 12 150.0)">quality</text><text class="lab" x="60" y="53" font-weight="700">(a)</text>
<polyline points="55.0,266.4 72.5,258.6 90.0,249.8 107.5,240.4 125.0,231.1 142.5,222.5 160.0,215.3 177.5,210.7 195.0,214.1 212.5,221.9 230.0,224.0 247.5,224.0 265.0,222.2 282.5,218.0 300.0,206.8 317.5,212.2 335.0,219.1 352.5,225.6 370.0,255.7" fill="none" stroke="#5866e9" stroke-width="3" stroke-linejoin="round" stroke-linecap="round"/><polyline points="55.0,263.2 72.5,255.3 90.0,246.5 107.5,237.1 125.0,227.9 142.5,219.2 160.0,212.0 177.5,207.4 195.0,200.6 212.5,190.0 230.0,183.3 247.5,180.7 265.0,182.1 282.5,187.8 300.0,203.5 317.5,208.9 335.0,215.8 352.5,222.3 370.0,173.3" fill="none" stroke="#39705a" stroke-width="3" stroke-linejoin="round" stroke-linecap="round"/><polyline points="55.0,67.9 72.5,67.9 90.0,67.9 107.5,67.9 125.0,67.9 142.5,67.9 160.0,67.9 177.5,67.9 195.0,68.1 212.5,68.3 230.0,68.8 247.5,69.7 265.0,70.6 282.5,69.4 300.0,64.6 317.5,58.3 335.0,52.4 352.5,48.5 370.0,40.4" fill="none" stroke="#9b6f3d" stroke-width="3" stroke-linejoin="round" stroke-linecap="round"/><polyline points="55.0,281.4 72.5,267.7 90.0,254.0 107.5,240.4 125.0,226.7 142.5,213.0 160.0,199.3 177.5,185.6 195.0,171.9 212.5,158.2 230.0,144.5 247.5,130.8 265.0,117.1 282.5,103.5 300.0,89.8 317.5,76.1 335.0,62.4 352.5,48.7 370.0,35.0" fill="none" stroke="#8a5aa8" stroke-width="3" stroke-dasharray="7 5" stroke-linejoin="round" stroke-linecap="round"/><rect x="254" y="39" width="112" height="96" rx="5" fill="#f3efe6" fill-opacity=".9" stroke="#cbc3b5"/><line x1="262" y1="53" x2="287" y2="53" stroke="#5866e9" stroke-width="3"/><text class="leg" x="294" y="57">Basic</text><line x1="262" y1="75" x2="287" y2="75" stroke="#39705a" stroke-width="3"/><text class="leg" x="294" y="79">Standard</text><line x1="262" y1="97" x2="287" y2="97" stroke="#9b6f3d" stroke-width="3"/><text class="leg" x="294" y="101">Pro</text><line x1="262" y1="119" x2="287" y2="119" stroke="#8a5aa8" stroke-width="3" stroke-dasharray="7 5"/><text class="leg" x="294" y="123">X</text>
<line class="grid" x1="420.0" y1="35" x2="420.0" y2="265"/><text class="tick" x="420.0" y="283" text-anchor="middle">1.5</text><line class="grid" x1="498.8" y1="35" x2="498.8" y2="265"/><text class="tick" x="498.8" y="283" text-anchor="middle">3.4</text><line class="grid" x1="577.5" y1="35" x2="577.5" y2="265"/><text class="tick" x="577.5" y="283" text-anchor="middle">5.2</text><line class="grid" x1="656.2" y1="35" x2="656.2" y2="265"/><text class="tick" x="656.2" y="283" text-anchor="middle">7.1</text><line class="grid" x1="735.0" y1="35" x2="735.0" y2="265"/><text class="tick" x="735.0" y="283" text-anchor="middle">9.0</text><line class="grid" x1="420" y1="265.0" x2="735" y2="265.0"/><text class="tick" x="412" y="269.0" text-anchor="end">0.0</text><line class="grid" x1="420" y1="207.5" x2="735" y2="207.5"/><text class="tick" x="412" y="211.5" text-anchor="end">13.8</text><line class="grid" x1="420" y1="150.0" x2="735" y2="150.0"/><text class="tick" x="412" y="154.0" text-anchor="end">27.5</text><line class="grid" x1="420" y1="92.5" x2="735" y2="92.5"/><text class="tick" x="412" y="96.5" text-anchor="end">41.2</text><line class="grid" x1="420" y1="35.0" x2="735" y2="35.0"/><text class="tick" x="412" y="39.0" text-anchor="end">55.0</text><line class="axis" x1="420" y1="265" x2="735" y2="265"/><line class="axis" x1="420" y1="35" x2="420" y2="265"/><text class="lab" x="577.5" y="305" text-anchor="middle">competitor quality qX</text><text class="lab" x="377" y="150.0" text-anchor="middle" transform="rotate(-90 377 150.0)">price</text><text class="lab" x="425" y="53" font-weight="700">(b)</text>
<polyline points="420.0,243.9 437.5,243.0 455.0,241.3 472.5,238.8 490.0,235.9 507.5,232.6 525.0,229.5 542.5,226.8 560.0,226.8 577.5,228.7 595.0,228.6 612.5,228.2 630.0,227.2 647.5,225.2 665.0,219.7 682.5,221.1 700.0,222.9 717.5,224.6 735.0,237.3" fill="none" stroke="#5866e9" stroke-width="3" stroke-linejoin="round" stroke-linecap="round"/><polyline points="420.0,242.2 437.5,241.3 455.0,239.6 472.5,237.2 490.0,234.3 507.5,231.1 525.0,227.9 542.5,225.3 560.0,221.0 577.5,214.8 595.0,210.7 612.5,208.8 630.0,209.1 647.5,211.4 665.0,218.2 682.5,219.5 700.0,221.3 717.5,223.0 735.0,189.3" fill="none" stroke="#39705a" stroke-width="3" stroke-linejoin="round" stroke-linecap="round"/><polyline points="420.0,56.8 437.5,64.0 455.0,71.5 472.5,78.9 490.0,86.0 507.5,92.7 525.0,98.7 542.5,104.0 560.0,108.4 577.5,112.6 595.0,116.4 612.5,120.2 630.0,123.3 647.5,123.4 665.0,119.0 682.5,112.4 700.0,105.8 717.5,101.0 735.0,91.3" fill="none" stroke="#9b6f3d" stroke-width="3" stroke-linejoin="round" stroke-linecap="round"/><polyline points="420.0,252.9 437.5,249.7 455.0,245.8 472.5,241.4 490.0,236.3 507.5,230.5 525.0,223.9 542.5,216.4 560.0,207.9 577.5,198.7 595.0,189.2 612.5,179.3 630.0,168.8 647.5,157.5 665.0,145.2 682.5,131.9 700.0,117.4 717.5,102.3 735.0,86.8" fill="none" stroke="#8a5aa8" stroke-width="3" stroke-dasharray="7 5" stroke-linejoin="round" stroke-linecap="round"/>
<line class="grid" x1="55.0" y1="335" x2="55.0" y2="565"/><text class="tick" x="55.0" y="583" text-anchor="middle">1.5</text><line class="grid" x1="133.8" y1="335" x2="133.8" y2="565"/><text class="tick" x="133.8" y="583" text-anchor="middle">3.4</text><line class="grid" x1="212.5" y1="335" x2="212.5" y2="565"/><text class="tick" x="212.5" y="583" text-anchor="middle">5.2</text><line class="grid" x1="291.2" y1="335" x2="291.2" y2="565"/><text class="tick" x="291.2" y="583" text-anchor="middle">7.1</text><line class="grid" x1="370.0" y1="335" x2="370.0" y2="565"/><text class="tick" x="370.0" y="583" text-anchor="middle">9.0</text><line class="grid" x1="55" y1="565.0" x2="370" y2="565.0"/><text class="tick" x="47" y="569.0" text-anchor="end">0.1</text><line class="grid" x1="55" y1="507.5" x2="370" y2="507.5"/><text class="tick" x="47" y="511.5" text-anchor="end">0.2</text><line class="grid" x1="55" y1="450.0" x2="370" y2="450.0"/><text class="tick" x="47" y="454.0" text-anchor="end">0.2</text><line class="grid" x1="55" y1="392.5" x2="370" y2="392.5"/><text class="tick" x="47" y="396.5" text-anchor="end">0.3</text><line class="grid" x1="55" y1="335.0" x2="370" y2="335.0"/><text class="tick" x="47" y="339.0" text-anchor="end">0.4</text><line class="axis" x1="55" y1="565" x2="370" y2="565"/><line class="axis" x1="55" y1="335" x2="55" y2="565"/><text class="lab" x="212.5" y="605" text-anchor="middle">competitor quality qX</text><text class="lab" x="12" y="450.0" text-anchor="middle" transform="rotate(-90 12 450.0)">market share</text><text class="lab" x="60" y="353" font-weight="700">(c)</text>
<polyline points="55.0,467.8 72.5,470.9 90.0,472.9 107.5,473.6 125.0,473.0 142.5,471.2 160.0,468.2 177.5,464.4 195.0,459.6 212.5,448.5 230.0,435.5 247.5,427.3 265.0,423.6 282.5,420.6 300.0,414.8 317.5,408.6 335.0,406.3 352.5,407.2 370.0,370.7" fill="none" stroke="#5866e9" stroke-width="3" stroke-linejoin="round" stroke-linecap="round"/><polyline points="55.0,467.6 72.5,470.8 90.0,472.8 107.5,473.5 125.0,472.9 142.5,471.1 160.0,468.2 177.5,464.4 195.0,460.2 212.5,458.9 230.0,457.3 247.5,451.1 265.0,439.6 282.5,425.9 300.0,414.8 317.5,408.7 335.0,406.4 352.5,407.2 370.0,467.3" fill="none" stroke="#39705a" stroke-width="3" stroke-linejoin="round" stroke-linecap="round"/><polyline points="55.0,488.5 72.5,489.3 90.0,490.4 107.5,491.8 125.0,493.5 142.5,495.6 160.0,498.1 177.5,501.3 195.0,505.2 212.5,510.4 230.0,516.7 247.5,524.2 265.0,532.6 282.5,541.3 300.0,549.6 317.5,555.3 335.0,556.5 352.5,553.6 370.0,553.0" fill="none" stroke="#9b6f3d" stroke-width="3" stroke-linejoin="round" stroke-linecap="round"/><polyline points="55.0,383.0 72.5,362.7 90.0,351.0 107.5,345.1 125.0,343.5 142.5,345.5 160.0,351.2 177.5,361.0 195.0,376.9 212.5,400.0 230.0,424.0 247.5,441.1 265.0,452.8 282.5,464.4 300.0,478.9 317.5,497.5 335.0,515.8 352.5,531.5 370.0,537.5" fill="none" stroke="#8a5aa8" stroke-width="3" stroke-dasharray="7 5" stroke-linejoin="round" stroke-linecap="round"/>
<line class="grid" x1="420.0" y1="335" x2="420.0" y2="565"/><text class="tick" x="420.0" y="583" text-anchor="middle">1.5</text><line class="grid" x1="498.8" y1="335" x2="498.8" y2="565"/><text class="tick" x="498.8" y="583" text-anchor="middle">3.4</text><line class="grid" x1="577.5" y1="335" x2="577.5" y2="565"/><text class="tick" x="577.5" y="583" text-anchor="middle">5.2</text><line class="grid" x1="656.2" y1="335" x2="656.2" y2="565"/><text class="tick" x="656.2" y="583" text-anchor="middle">7.1</text><line class="grid" x1="735.0" y1="335" x2="735.0" y2="565"/><text class="tick" x="735.0" y="583" text-anchor="middle">9.0</text><line class="grid" x1="420" y1="565.0" x2="735" y2="565.0"/><text class="tick" x="412" y="569.0" text-anchor="end">200.0</text><line class="grid" x1="420" y1="507.5" x2="735" y2="507.5"/><text class="tick" x="412" y="511.5" text-anchor="end">1350.0</text><line class="grid" x1="420" y1="450.0" x2="735" y2="450.0"/><text class="tick" x="412" y="454.0" text-anchor="end">2500.0</text><line class="grid" x1="420" y1="392.5" x2="735" y2="392.5"/><text class="tick" x="412" y="396.5" text-anchor="end">3650.0</text><line class="grid" x1="420" y1="335.0" x2="735" y2="335.0"/><text class="tick" x="412" y="339.0" text-anchor="end">4800.0</text><line class="axis" x1="420" y1="565" x2="735" y2="565"/><line class="axis" x1="420" y1="335" x2="420" y2="565"/><text class="lab" x="577.5" y="605" text-anchor="middle">competitor quality qX</text><text class="lab" x="377" y="450.0" text-anchor="middle" transform="rotate(-90 377 450.0)">profit</text><text class="lab" x="425" y="353" font-weight="700">(d)</text>
<polyline points="420.0,339.3 437.5,364.0 455.0,387.3 472.5,408.7 490.0,428.0 507.5,444.5 525.0,457.6 542.5,465.8 560.0,467.9 577.5,468.4 595.0,469.1 612.5,470.1 630.0,469.6 647.5,465.4 665.0,457.1 682.5,446.0 700.0,435.0 717.5,426.9 735.0,421.2" fill="none" stroke="#5866e9" stroke-width="3" stroke-linejoin="round" stroke-linecap="round"/><polyline points="420.0,545.6 437.5,541.9 455.0,539.8 472.5,539.0 490.0,539.1 507.5,539.7 525.0,540.7 542.5,541.2 560.0,541.1 577.5,543.1 595.0,546.4 612.5,549.8 630.0,552.8 647.5,555.4 665.0,557.5 682.5,559.3 700.0,560.6 717.5,561.9 735.0,562.5" fill="none" stroke="#39705a" stroke-width="3" stroke-dasharray="7 5" stroke-linejoin="round" stroke-linecap="round"/><rect x="619" y="339" width="112" height="52" rx="5" fill="#f3efe6" fill-opacity=".9" stroke="#cbc3b5"/><line x1="627" y1="353" x2="652" y2="353" stroke="#5866e9" stroke-width="3"/><text class="leg" x="659" y="357">Firm A</text><line x1="627" y1="375" x2="652" y2="375" stroke="#39705a" stroke-width="3" stroke-dasharray="7 5"/><text class="leg" x="659" y="379">Firm B</text>
</svg>